<?xml version="1.0" standalone="no"?>
<!DOCTYPE svg PUBLIC "-//W3C//DTD SVG 1.1//EN" "http://www.w3.org/Graphics/SVG/1.1/DTD/svg11.dtd">
<svg xmlns="http://www.w3.org/2000/svg" xmlns:xlink="http://www.w3.org/1999/xlink" t="1583748138781" class="icon" viewBox="0 0 1024 1024" version="1.1" p-id="1142" width="16.000000pt" height="16.000000pt"><path d="M763.733333 356.266667c-55.466667-149.333333-221.866667-224-371.2-168.533334-100.266667 38.4-170.666667 128-183.466666 234.666667-115.2 25.6-187.733333 140.8-160 256 21.333333 96 108.8 166.4 206.933333 166.4h68.266667c17.066667 0 32-14.933333 32-32s-14.933333-32-32-32H256c-83.2 4.266667-153.6-57.6-157.866667-140.8-4.266667-83.2 57.6-153.6 140.8-157.866667h6.4c14.933333 0 25.6-12.8 27.733334-27.733333v-2.133333c4.266667-123.733333 106.666667-221.866667 232.533333-217.6 96 2.133333 181.333333 68.266667 209.066667 162.133333v2.133333c2.133333 4.266667 4.266667 10.666667 8.533333 12.8 4.266667 4.266667 10.666667 6.4 17.066667 6.4h2.133333c100.266667 0 181.333333 81.066667 181.333333 181.333334 0 93.866667-72.533333 172.8-166.4 179.2h-55.466666c-17.066667 0-32 12.8-34.133334 29.866666s12.8 32 29.866667 34.133334h53.333333c134.4-6.4 238.933333-119.466667 232.533334-253.866667-6.4-121.6-100.266667-219.733333-219.733334-232.533333z" fill="#000000" p-id="1143"/><path d="M535.466667 778.666667v-51.2h17.066666v-21.333334h-66.133333v21.333334h17.066667v51.2c-19.2 8.533333-27.733333 32-17.066667 51.2 8.533333 19.2 32 27.733333 51.2 17.066666s27.733333-32 17.066667-51.2c-6.4-8.533333-12.8-14.933333-19.2-17.066666zM708.266667 706.133333h21.333333v21.333334h-21.333333zM394.666667 706.133333h21.333333v21.333334h-21.333333zM618.666667 706.133333h21.333333v21.333334h-21.333333zM663.466667 706.133333h21.333333v21.333334h-21.333333zM573.866667 706.133333h21.333333v21.333334h-21.333333zM349.866667 706.133333h21.333333v21.333334h-21.333333zM439.466667 706.133333h21.333333v21.333334h-21.333333zM307.2 706.133333h21.333333v21.333334h-21.333333zM307.2 635.733333h21.333333v17.066667h-21.333333zM307.2 672h21.333333v17.066667h-21.333333zM307.2 597.333333h21.333333v21.333334h-21.333333zM573.866667 597.333333h21.333333v21.333334h-21.333333zM439.466667 597.333333h21.333333v21.333334h-21.333333zM708.266667 597.333333h21.333333v21.333334h-21.333333zM708.266667 672h21.333333v17.066667h-21.333333zM708.266667 635.733333h21.333333v17.066667h-21.333333zM552.533333 467.2a38.250667 38.250667 0 1 0-51.2 51.2V597.333333h-17.066666v21.333334h66.133333v-21.333334H533.333333v-78.933333c21.333333-8.533333 27.733333-32 19.2-51.2zM381.866667 445.866667c-21.333333 0-38.4 17.066667-38.4 38.4 0 14.933333 8.533333 27.733333 21.333333 34.133333V597.333333h-14.933333v21.333334h66.133333v-21.333334h-19.2v-78.933333c12.8-6.4 23.466667-19.2 23.466667-34.133333 2.133333-21.333333-17.066667-38.4-38.4-38.4zM633.6 518.4V597.333333H618.666667v21.333334H684.8v-21.333334h-17.066667v-78.933333c19.2-8.533333 27.733333-32 17.066667-51.2-8.533333-19.2-32-27.733333-51.2-17.066667-19.2 8.533333-27.733333 32-17.066667 51.2 2.133333 8.533333 8.533333 14.933333 17.066667 17.066667z" fill="#000000" p-id="1144"/></svg>